# xmcd
#
# Track frame offsets:
#	150
#	18562
#	34182
#	50676
#	66918
#
# Disc length: 1095 seconds
#
# Revision: 2
# Processed by: cddbd v1.5.2PL0 Copyright (c) Steve Scherf et al.
# Submitted via: EasyCDDAExtractor 11.0.0.1
#
DISCID=42044505
DTITLE=ΑΡΒΑΝΙΤΗ ΣΟΦΙΑ - ΔΥΝΑΜΗ
DYEAR=2002
DGENRE=ΛΑΪΚΑ
TTITLE0=Na Mhn Figeis Pote
TTITLE1=Den Brisko Th Dinamh
TTITLE2=Enan Antra Agapao
TTITLE3=Cabrio
TTITLE4=Mh Moi Milas Pa Kalokairia (Positive Energy Mix)
EXTD=YEAR: 2005
EXTT0=
EXTT1=
EXTT2=
EXTT3=
EXTT4=
PLAYORDER=
